<svg width="500" height="500" viewBox="0 0 500 500" fill="none" xmlns="http://www.w3.org/2000/svg">
<path d="M64 131H113.075L164.933 307.998H167.083L219.067 131H268.522V394.464H229.439V222.947H228.047L179.099 393.226H152.664L104.221 222.593H102.577V394.464H64V131Z" fill="#9108FD"/>
<path d="M353.644 398C342.345 398 331.931 395.23 322.403 389.689C312.875 384.031 305.244 375.426 299.51 363.874C293.776 352.321 290.909 337.763 290.909 320.199V317.193H330.625V320.199C330.625 330.69 332.733 338.883 336.949 344.777C341.165 350.553 346.73 353.441 353.644 353.441C368.991 353.441 376.664 340.592 376.664 314.894V131H416V314.894C416 340.356 410.393 360.573 399.178 375.544C387.963 390.515 372.785 398 353.644 398Z" fill="#0921FF"/>
</svg>
